<?xml version="1.0" encoding="iso-8859-1"?>
<!-- Generator: Adobe Illustrator 19.0.0, SVG Export Plug-In . SVG Version: 6.00 Build 0)  -->
<svg version="1.1" id="Capa_1" xmlns="http://www.w3.org/2000/svg" xmlns:xlink="http://www.w3.org/1999/xlink" x="0px" y="0px" viewBox="0 0 512.001 512.001" xml:space="preserve">
<g>
	<g>
		<path d="M507.139,196.931c-3.799-4.401-9.325-6.931-15.138-6.931h-16v-76c0-11.046-8.954-20-20-20h-244V58
			c0-11.046-8.954-20-20-20h-136c-11.046,0-20,8.954-20,20v132h-16c-5.813,0-11.34,2.53-15.139,6.931
			c-3.8,4.4-5.496,10.237-4.647,15.988l36,244C37.664,466.731,46.083,474,56.001,474h400c9.918,0,18.338-7.269,19.786-17.081l36-244
			C512.634,207.168,510.939,201.331,507.139,196.931z M76.001,78h96v36c0,11.046,8.954,20,20,20h244v56h-360V78z M438.735,434
			H73.267L43.167,230c10.19,0,423.533,0,425.665,0L438.735,434z"/>
	</g>
</g>
<g>
</g>
<g>
</g>
<g>
</g>
<g>
</g>
<g>
</g>
<g>
</g>
<g>
</g>
<g>
</g>
<g>
</g>
<g>
</g>
<g>
</g>
<g>
</g>
<g>
</g>
<g>
</g>
<g>
</g>
</svg>
