<?xml version="1.0" encoding="iso-8859-1"?>
<!-- Generator: Adobe Illustrator 19.0.0, SVG Export Plug-In . SVG Version: 6.00 Build 0)  -->
<svg version="1.1" id="Capa_1" xmlns="http://www.w3.org/2000/svg" xmlns:xlink="http://www.w3.org/1999/xlink" x="0px" y="0px" viewBox="0 0 469.333 469.333" xml:space="preserve">
<g>
	<g>
		<path d="M415.147,48H292.48c-11.589,0.011-23.017,2.709-33.387,7.883l-24.427,12.192l-24.384-12.192
			c-10.37-5.173-21.798-7.871-33.387-7.883H54.187c-6.36,0.006-11.514,5.16-11.52,11.52v296.96c0.006,6.36,5.16,11.514,11.52,11.52
			h122.667c8.275,0.013,16.434,1.94,23.84,5.632l29.205,14.635c0.16,0.075,0.341,0,0.501,0.117c2.688,1.334,5.845,1.334,8.533,0
			c0.16-0.075,0.341,0,0.501-0.117l29.163-14.581c7.401-3.71,15.561-5.656,23.84-5.685h122.667
			c6.368,0.018,11.545-5.13,11.563-11.499c0-0.007,0-0.014,0-0.021V59.52C426.661,53.16,421.507,48.006,415.147,48z M224,361.408
			l-13.717-6.859c-10.37-5.173-21.798-7.871-33.387-7.883H64V69.333h112.896c8.275,0.013,16.434,1.94,23.84,5.632L224,86.592
			V361.408z M405.333,346.667H292.437c-11.589,0.011-23.017,2.709-33.387,7.883l-13.717,6.859V86.592l23.253-11.627
			c7.409-3.693,15.572-5.621,23.851-5.632h112.896V346.667z"/>
	</g>
</g>
<g>
	<g>
		<path d="M458.667,69.333h-21.333v21.333H448v288H279.851c-12.131-0.042-23.23,6.817-28.619,17.685L249.408,400h-29.483
			l-1.824-3.648c-5.388-10.869-16.488-17.728-28.619-17.685H21.333v-288H32V69.333H10.667C4.776,69.333,0,74.109,0,80v309.333
			C0,395.224,4.776,400,10.667,400h178.816c4.039,0.002,7.731,2.286,9.536,5.899l4.768,9.536c1.807,3.617,5.504,5.901,9.547,5.899
			H256c4.043,0.002,7.74-2.282,9.547-5.899l4.768-9.536c1.805-3.613,5.497-5.896,9.536-5.899h178.816
			c5.891,0,10.667-4.776,10.667-10.667V80C469.333,74.109,464.558,69.333,458.667,69.333z"/>
	</g>
</g>
<g>
	<g>
		<rect x="85.333" y="90.667" width="106.667" height="21.333"/>
	</g>
</g>
<g>
	<g>
		<rect x="85.333" y="133.333" width="106.667" height="21.333"/>
	</g>
</g>
<g>
	<g>
		<rect x="85.333" y="176" width="106.667" height="21.333"/>
	</g>
</g>
<g>
	<g>
		<rect x="85.333" y="218.667" width="106.667" height="21.333"/>
	</g>
</g>
<g>
	<g>
		<rect x="85.333" y="261.333" width="106.667" height="21.333"/>
	</g>
</g>
<g>
	<g>
		<rect x="85.333" y="304" width="106.667" height="21.333"/>
	</g>
</g>
<g>
	<g>
		<rect x="277.333" y="90.667" width="106.667" height="21.333"/>
	</g>
</g>
<g>
	<g>
		<rect x="277.333" y="133.333" width="106.667" height="21.333"/>
	</g>
</g>
<g>
	<g>
		<rect x="277.333" y="176" width="106.667" height="21.333"/>
	</g>
</g>
<g>
	<g>
		<rect x="277.333" y="218.667" width="106.667" height="21.333"/>
	</g>
</g>
<g>
	<g>
		<rect x="277.333" y="261.333" width="106.667" height="21.333"/>
	</g>
</g>
<g>
	<g>
		<rect x="277.333" y="304" width="106.667" height="21.333"/>
	</g>
</g>
<g>
</g>
<g>
</g>
<g>
</g>
<g>
</g>
<g>
</g>
<g>
</g>
<g>
</g>
<g>
</g>
<g>
</g>
<g>
</g>
<g>
</g>
<g>
</g>
<g>
</g>
<g>
</g>
<g>
</g>
</svg>
